#!OML:ASF E:/inclinewalkrobotboard/Project1/Captureday1/Session1/subject1.ASF
:FULLY-SPECIFIED
:DEGREES
238
root 0 0 0 -0.3870975667554718 -2.0310669535323274 -3.883184026347968
lowerback 16.50553073431109 1.1003020811268436 -0.11971857397393804
upperback 0.6750694359169709 1.4415648032723911 0.32775315996265986
thorax -8.603519380051887 0.6827405607236459 0.051490959088357324
lowerneck -7.465209319880782 -3.262438344860159 1.3049754167473755
upperneck -5.908863322065269 -4.23391005480772 1.7372820870051817
head -0.7051820706368588 -2.1944562133256773 0.2391910014346606
rclavicle -3.797020691135199E-16 1.7377086922101238E-17
rhumerus 12.085586190427783 0.5095265496479477 -39.44671697544854
rradius 118.77334208088244
rwrist -30.799977557492515
rhand -11.673934894962064 -36.594728786204094
rfingers 7.125019999999964
rthumb 14.40911701046717 -66.00942370200491
lclavicle -4.0248886632695976E-16 -4.59787368111947E-16
lhumerus -43.383815668472536 -0.38686166422994406 83.15803860102908
lradius 45.32785527854224
lwrist 1.920565060458769
lhand -15.538363313848095 -12.351643750424028
lfingers 7.125019999999934
lthumb 10.601048876109768 16.792830658220133
rfemur -2.759356726254941 1.0266264900840472 5.517496772214216
rtibia 8.26199763259912
rfoot -1.555364264833626 -1.3460109424108713
rtoes 0.7906097650360477
lfemur -6.500328600426608 -3.580323821102032 -12.204912815491646
ltibia 27.37784483494529
lfoot -19.32328593968229 8.019320132375277
ltoes -43.468384412889534
239
root 0 0 0 -0.38698889134150605 -2.0311347548593943 -3.883413753830115
lowerback 16.506430272000657 1.1002455596646656 -0.11978180890412637
upperback 0.6744288349477852 1.4414709811664899 0.3275892688356974
thorax -8.604655194344422 0.682683826195736 0.051323387881323734
lowerneck -7.465280516840661 -3.2623928804021896 1.3055755977350345
upperneck -5.9147515409014275 -4.233777440317438 1.736876334790717
head -0.7071442534853949 -2.194459673521069 0.23904110147188426
rclavicle -3.7970639367999014E-16 1.743212653588623E-17
rhumerus 12.086595168280937 0.5109338626892477 -39.44548222643323
rradius 118.77693789021141
rwrist -30.80159688120141
rhand -11.673375092224601 -36.59822520020765
rfingers 7.125019999999964
rthumb 14.409645962810092 -66.01281139334712
lclavicle -4.021983208304204E-16 -4.595535640416473E-16
lhumerus -43.38670495276832 -0.3867551837383031 83.15849342972399
lradius 45.33185096596443
lwrist 1.919028946352614
lhand -15.535112638253036 -12.361903086869052
lfingers 7.125019999999934
lthumb 10.604133578146094 16.782988085580683
rfemur -2.758413305122624 1.0262699863156048 5.515608684906965
rtibia 8.259196773127147
rfoot -1.5548297799834776 -1.3455386001886982
rtoes 0.7903344288930618
lfemur -6.499888690300697 -3.580634276149178 -12.203944857496092
ltibia 27.376958648704587
lfoot -19.32506066223069 8.020863406179071
ltoes -43.473546302227675
240
root 0 0 0 -0.38687344442181637 -2.0311963774646324 -3.88364410347564
lowerback 16.50725012361753 1.1001999211819948 -0.11983485464929722
upperback 0.6738107081402174 1.4413926981631642 0.32742888261502734
thorax -8.605724115823673 0.6826353778296839 0.051155222228121744
lowerneck -7.465325106920293 -3.2623495696929634 1.3061475209446827
upperneck -5.920294584321589 -4.233658453394392 1.7365115823063448
head -0.7089958192126966 -2.1944635536007615 0.2389048342083801
rclavicle -3.797111987413766E-16 1.748368007200936E-17
rhumerus 12.087525707408055 0.5122547775960644 -39.44433650610007
rradius 118.78029635787276
rwrist -30.803106338295507
rhand -11.672847738085743 -36.601511900530355
rfingers 7.125019999999964
rthumb 14.41014430002173 -66.01599554903387
lclavicle -4.0190943870000965E-16 -4.593263043382591E-16
lhumerus -43.38953064455832 -0.38664680970729515 83.15893523791998
lradius 45.33574941426944
lwrist 1.917525286621858
lhand -15.531936899946713 -12.37192361429783
lfingers 7.125019999999934
lthumb 10.607147312212486 16.773369331542646
rfemur -2.7574164689879153 1.0258903222765663 5.5136014453926965
rtibia 8.256226310533032
rfoot -1.55425990325939 -1.3450382843278157
rtoes 0.7900379755363558
lfemur -6.499412486943399 -3.5809688428608317 -12.202919134662697
ltibia 27.375998566233818
lfoot -19.326948723805433 8.02250326363522
ltoes -43.47901707816756
241
root 0 0 0 -0.3867589308959619 -2.0312585985576415 -3.883854981339918
lowerback 16.50804083365228 1.1001308604572073 -0.11990270716355922
upperback 0.6732017382359134 1.441281126790568 0.32727955978392154
thorax -8.606769914501628 0.6825713944204502 0.051012727388342394
lowerneck -7.46536760019436 -3.262280766449085 1.3067335150600297
upperneck -5.925751184482241 -4.233498333981677 1.7361089114968746
head -0.7108161354780496 -2.194449959782595 0.23875671773947532
rclavicle -3.797154911760494E-16 1.753073212479012E-17
rhumerus 12.08831458676893 0.5134758152459522 -39.44333356028329
rradius 118.78331534559932
rwrist -30.80445940472938
rhand -11.67235387145762 -36.60455041888147
rfingers 7.125019999999964
rthumb 14.410610960753598 -66.01893920046972
lclavicle -4.016229044517099E-16 -4.591061470000236E-16
lhumerus -43.39229631787538 -0.3865400827224458 83.15936212979163
lradius 45.33956127164947
lwrist 1.9160580585489457
lhand -15.528833700283089 -12.381713547601695
lfingers 7.125019999999935
lthumb 10.61009176281673 16.763966790293004
rfemur -2.756359724503234 1.0254848041047304 5.5114615411499095
rtibia 8.2530695145837
rfoot -1.5536490474571356 -1.3445062929747267
rtoes 0.789719550289586
lfemur -6.49891557269981 -3.5813157358626446 -12.20186950239594
ltibia 27.375000140064834
lfoot -19.328887022701803 8.024184808946561
ltoes -43.484618059626555
242
root 0 0 0 -0.3866512826786469 -2.031326203071736 -3.8840351969391382
lowerback 16.508843502828583 1.100018310216364 -0.12000037628641058
upperback 0.672591396807898 1.441107751360503 0.3271449004664637
thorax -8.607827222213565 0.6824778250141067 0.05091008606930214
lowerneck -7.465427301202117 -3.2621717755649082 1.3073600768951623
upperneck -5.931315988957703 -4.2332660204255745 1.73561925899683
head -0.7126653531964271 -2.194409503798918 0.23858087454700258
rclavicle -3.797191197501203E-16 1.7573143941516134E-17
rhumerus 12.08894644042963 0.5145964079408945 -39.44248534816897
rradius 118.78597468506973
rwrist -30.80564667661547
rhand -11.671892421511622 -36.60733838138433
rfingers 7.125019999999964
rthumb 14.411046906123735 -66.02164028881693
lclavicle -4.0133942403701455E-16 -4.588929429222589E-16
lhumerus -43.39500532693995 -0.3864370277450344 83.15977410648634
lradius 45.34329489623325
lwrist 1.9146281343469047
lhand -15.525799490903486 -12.391284695955544
lfingers 7.125019999999935
lthumb 10.612970041252371 16.754770137124453
rfemur -2.7552548170711137 1.0250583777907905 5.509214822265239
rtibia 8.249764926730293
rfoot -1.5530040038043458 -1.343948539094829
rtoes 0.7893842665171251
lfemur -6.498414859102362 -3.581662995739798 -12.200828307868516
ltibia 27.373999523422864
lfoot -19.330814210434383 8.025855102130594
ltoes -43.49017738400651
243
root 0 0 0 -0.3865539461008154 -2.0314016156676087 -3.88418213194607
lowerback 16.509684311764005 1.099856279502815 -0.12013279575893177
upperback 0.6719732158681478 1.4408641126716375 0.32702497933829844
thorax -8.60891728809296 0.6823503343137655 0.05085008779238065
lowerneck -7.465515845286302 -3.262019964897517 1.3080372795743709
upperneck -5.937099552028833 -4.232953381922598 1.7350244690459373
head -0.7145780919480895 -2.1943406716901483 0.23837138677821423
rclavicle -3.797225059869941E-16 1.761145677260047E-17
rhumerus 12.089442657344733 0.5156263723725516 -39.44177167288095
rradius 118.7883177450981
rwrist -30.806687659598285
rhand -11.671460534193047 -36.60990192725616
rfingers 7.125019999999964
rthumb 14.411454812647584 -66.0241242871554
lclavicle -4.010595516829774E-16 -4.586859948730284E-16
lhumerus -43.39766083443146 -0.38633818576750056 83.16017266398262
lradius 45.34695628777101
lwrist 1.9132336341697358
lhand -15.522829846404322 -12.400651520391305
lfingers 7.125019999999935
lthumb 10.615786385864784 16.74576687498049
rfemur -2.754124018350039 1.0246204037942068 5.506909798134258
rtibia 8.24638243000801
rfoot -1.5523389615216523 -1.3433765446721457
rtoes 0.789040446279007
lfemur -6.497924897307525 -3.582000880344106 -12.199820451819303
ltibia 27.37302622528145
lfoot -19.332682254688734 8.027473013988104
ltoes -43.49556190296688
244
root 0 0 0 -0.3864678598832122 -2.031485085802699 -3.884299867860872
lowerback 16.510573523461765 1.0996500633460493 -0.12029668418338801
upperback 0.6713449126722967 1.4405578143463917 0.32691731923678735
thorax -8.610047545162526 0.6821924165126896 0.050826784189263785
lowerneck -7.46563693854333 -3.2618318543212066 1.308761470050765
upperneck -5.943130279077074 -4.232570325994186 1.7343321609958113
head -0.7165638540134083 -2.1942478865985517 0.2381306538323212
rclavicle -3.7972635019188783E-16 1.764661704813576E-17
rhumerus 12.089846447344847 0.5165819735294352 -39.441153234554406
rradius 118.79042592734693
rwrist -30.807619278054762
rhand -11.671054209996749 -36.612284528516
rfingers 7.125019999999964
rthumb 14.411838464826873 -66.0264333632791
lclavicle -4.007835932538049E-16 -4.584842856749752E-16
lhumerus -43.40026585751485 -0.3862429267547238 83.16056020011216
lradius 45.350549478456465
lwrist 1.9118707359033946
lhand -15.519919856030109 -12.40982985554195
lfingers 7.125019999999935
lthumb 10.618545701475394 16.7369432216568
rfemur -2.752992588781326 1.0241815016267661 5.50460133641748
rtibia 8.243000113880159
rfoot -1.5516705233588861 -1.3428034984027026
rtoes 0.7886970295256843
lfemur -6.497455680105755 -3.5823231564099225 -12.198860556401032
ltibia 27.3720991846524
lfoot -19.334462182800138 8.02901403205912
ltoes -43.50069264300097
